<svg id="Ebene_1" data-name="Ebene 1" xmlns="http://www.w3.org/2000/svg" xmlns:xlink="http://www.w3.org/1999/xlink" viewBox="0 0 262.68 150.04"><defs><style>.cls-1{fill:none;}.cls-2{clip-path:url(#clip-path);}.cls-3{clip-path:url(#clip-path-2);}.cls-4{fill:url(#Unbenannter_Verlauf_2);}.cls-5{fill:#fff;}.cls-6{fill:#141412;}.cls-7{fill:#cbcccc;}.cls-8{clip-path:url(#clip-path-4);}.cls-9{fill:url(#Unbenannter_Verlauf_2-2);}</style><clipPath id="clip-path"><rect class="cls-1" width="262.68" height="150.04"/></clipPath><clipPath id="clip-path-2"><polygon class="cls-1" points="34.35 37.5 7.87 124.13 236.19 124.13 262.68 37.5 34.35 37.5"/></clipPath><linearGradient id="Unbenannter_Verlauf_2" x1="-163.11" y1="-207.68" x2="-162.11" y2="-207.68" gradientTransform="matrix(0, -86.63, -86.63, 0, -17855.63, -14005.47)" gradientUnits="userSpaceOnUse"><stop offset="0" stop-color="#991210"/><stop offset="0.05" stop-color="#9d1212"/><stop offset="0.38" stop-color="#b2141b"/><stop offset="0.7" stop-color="#bf1620"/><stop offset="1" stop-color="#c31622"/></linearGradient><clipPath id="clip-path-4"><path class="cls-1" d="M165.61,52.77l-16.27,51.8h13.32l16.19-51.8ZM136,83.9c-.24.63-.44,1.24-.7,2-1.48,4.34-3.15,9.23-8.23,11a4,4,0,0,1-1.31.22,4.6,4.6,0,0,1-3.24-1.49,5.2,5.2,0,0,1-.92-4.8l11.86-38.07H120.78S113,77.39,109,90.6a15.7,15.7,0,0,0-.5,8.33,8.31,8.31,0,0,0,4.57,5.17,10.19,10.19,0,0,0,4.17.76A30.26,30.26,0,0,0,128.88,102a18.21,18.21,0,0,0,2.21-1.28l1.56-1-.27,1.24-.79,3.63h12.13a91.13,91.13,0,0,1,2.64-11.32l12.48-40.48h-13ZM78.83,97.68a4,4,0,0,1-1.92-1.6c-1.2-1.94-.53-4.54-.06-6.36L77,89c.45-1.48.89-2.91,1.33-4.34l.11-.36c2-6.43,4-13.08,6.43-19.43,1.44-2.92,3.25-4.73,5.26-5.48a6.4,6.4,0,0,1,2.23-.36c.26,0,.53,0,.79,0a7,7,0,0,1,2.5.73,4,4,0,0,1,1.66,1.5c1.33,2.1.62,4.82.08,6.89-.1.36-.18.69-.26,1L90,91.65c-1.12,2.91-2.54,4.84-4.22,5.79a9,9,0,0,1-2.91.92,6.49,6.49,0,0,1-.77,0,8.49,8.49,0,0,1-3.28-.73M86.42,53C75.58,55.61,71.1,65.34,67.85,75.76c-.45,1.51-.89,3-1.38,4.57-1.11,3.61-2.15,7-3.19,11H73.7L70,103.17a9.63,9.63,0,0,0,2,.85,18.93,18.93,0,0,0,2.14.57,33.36,33.36,0,0,0,6.84.7A27.14,27.14,0,0,0,94.55,102a17.69,17.69,0,0,0,6.31-6.49c2.72-4.73,4.38-10.1,6-15.31.54-1.79,1.11-3.65,1.72-5.45l.34-1.19c1.16-4.11,2.44-8.66,1.24-12.72A8.89,8.89,0,0,0,109,58.34a11.41,11.41,0,0,0-2.64-2.64c-3.87-2.87-8.77-3.56-12.57-3.56a34.43,34.43,0,0,0-7.32.82m106.14.38a20,20,0,0,0-12.63,15.21c-1.38,6.84,3.48,9.38,9.11,12.33a30.93,30.93,0,0,1,6.69,4.25,5.77,5.77,0,0,1,1.26,5.3,9.88,9.88,0,0,1-3,5.2,5.9,5.9,0,0,1-2.69,1.5,6.13,6.13,0,0,1-1.37.14,6.88,6.88,0,0,1-1.22-.1,4.22,4.22,0,0,1-2.52-1.31,3.92,3.92,0,0,1-.77-2,11.86,11.86,0,0,1,1-5.3l-13.36-.07c-1.5,5.64-1.16,9.73,1.05,12.16,3.67,3.79,9.28,4.59,13.33,4.59a31.1,31.1,0,0,0,11.33-1.86c8-2.83,11.84-10.77,12.49-16.89s-5.92-9.66-10.12-12c-2.78-1.54-5.25-2.76-6.51-4.83a6.26,6.26,0,0,1-.88-4,7.38,7.38,0,0,1,1.47-3.35,6.62,6.62,0,0,1,2.95-2.26,5.38,5.38,0,0,1,1.67-.34,4.49,4.49,0,0,1,1.85.42,3.59,3.59,0,0,1,2,2.36c.42,1.67-.22,3.42-.68,4.85h13.27a20.7,20.7,0,0,0,1-4.78,9.23,9.23,0,0,0-.84-4.83,10.27,10.27,0,0,0-3.82-3.92A18.36,18.36,0,0,0,203,51.44a31.91,31.91,0,0,0-10.46,1.9m-25-6.65h13.14l2.83-9.17H170.5Zm-134.67,58,33.28-.08,3.25-10.35-19.27.16L67.86,35.9,54,35.86Z"/></clipPath><linearGradient id="Unbenannter_Verlauf_2-2" x1="-164.13" y1="-208.14" x2="-163.13" y2="-208.14" gradientTransform="matrix(0, -69.43, -69.43, 0, -14326.81, -11290.72)" xlink:href="#Unbenannter_Verlauf_2"/></defs><title>Louis-Logo</title><g class="cls-2"><g class="cls-3"><rect class="cls-4" x="7.87" y="37.5" width="254.81" height="86.63"/></g><polygon class="cls-5" points="27.49 28.22 0.97 114.96 229.21 114.96 255.73 28.22 27.49 28.22"/><polygon class="cls-6" points="26.94 27.53 0 115.65 85.75 115.65 86.55 113.65 2.7 113.65 28.42 29.53 254 29.53 228.28 113.65 208.58 113.65 209.86 115.65 229.76 115.65 256.7 27.53 26.94 27.53"/><g class="cls-2"><path class="cls-7" d="M206.51,108,171.08,77.65S151.39,62.26,148.46,59c-9-19.61-28.85-28.44-42.39-30.3-2-4.65-7.3-5.66-13.9-4.76-4.89-5.45-7.63-4.29-10.22-4C82,14,77.71-2.74,60.31,1.37c-18.38,4.34-15,25.66-12,33.11a8,8,0,0,0-3.8,6.36c-.17,4.33,0,13.24,3.2,19.4s34.22,48,34.22,48,7.63,18.76,18.13,27c8.19,6.42,16.87,14.65,31.25,13.71,9.21-.6,17.38-6,18.63-23.63h11.67c3.66,5.45,10.15,13,19.92,17,10,4.06,17.13,2.31,21.13-1a18.61,18.61,0,0,0,7-11c1.52-7,1-15.48-3.14-22.15"/><path class="cls-6" d="M86.41,20.84c10.83,8.47,12.36,15.38,11.22,21.31-1.1,5.73,2.47,6.05,7.44,4.26,1-.34,1.87-.62,2.65-.82,20.13-5.27,36.87,11.61,42.8,18.51l-1.14-3.76a48.54,48.54,0,0,0-14.3-19.91,54.48,54.48,0,0,0-23.29-11.06l-4.56-1-.49-.75h-.07c-5.3-6.67-13.74-4.32-13.74-4.32S88.6,19,86.22,18.91a31.74,31.74,0,0,0-3.5.19C81.58,1,66.39-3.76,54.29,2.84c-11.54,6.29-9,24.19-9,24.19a33,33,0,0,0,1.84,7.15c-3.36,2.43-3.35,5.35-3.35,5.35s-1.48,17.32,5.65,26.12l3.17.25c-3-1.91-6.14-8.05-7-21,.72,3.88,1.74,7.89,3.41,7.93,12.67.28,24-6.63,30.94-12,3.24-2.51,5.6-16.23,6.37-20h0m19,8.68c34.39,4.52,43.57,31.7,43.57,31.7-22-24.49-39.95-18.2-44.17-16.7-4.7,1.67-5.29.75-4.84-2.68.07-.58.16-1.23.23-1.94.93-9-6-15-6-15,9.1-1.39,11.2,4.65,11.2,4.65M56.94,3.25C63.67.4,73,.71,77.6,8.13c1.76,2.83,3.55,8,3.46,11.14A70.85,70.85,0,0,0,68.3,23c3-5.27,4.66-12.64-1.1-9.79S57.67,18.08,52,18.36c-2,.1-4.87-.3-4.87-.82,0,0,1.14-10.63,9.78-14.29M47.07,24.88a35.94,35.94,0,0,1,0-5.43s1.13.91,5.23.65c5-.31,7.54-1.45,12.46-3.91,3.28-1.65,5.82-3.07,4.44,1.09a21.12,21.12,0,0,1-3.48,6.57c-2,.8-5.57,2.24-8,3.47a53.35,53.35,0,0,0-8.77,5.52c-.16-.25-1.49-2.94-1.85-8M78.94,39.24C72.67,44.83,61.43,50.83,49.82,50.9c-1.88-.11-3.55-6.62-4.35-11,.14-.64,1.41-5,11.78-10.18,15.41-7.68,23.85-8.88,27.29-9-.58,3.06-3.26,16.7-5.6,18.48"/><path class="cls-6" d="M209.07,111.66c-.93-2.23-2.19-4.67-2.19-4.67H205a35.89,35.89,0,0,1,4.35,12.48c1.29,9.06-1.6,23.51-16.93,23.65-13,.11-23.11-9.8-28.07-16.13a39.64,39.64,0,0,1-4-6.17H157.4a36,36,0,0,0,1.72,3.31H151a34.9,34.9,0,0,0-2.62-11.89c-1.05-2.51-2.46-5.25-2.46-5.25h-2.13a40.28,40.28,0,0,1,4.89,14c1.45,10.19-1.8,26.45-19,26.6-14.54.13-27-10.82-32.93-18.07A89.91,89.91,0,0,1,83,107l-2.53,0a80.66,80.66,0,0,0,14.37,24.43c10.81,12.72,22.51,16.91,28.88,18.08,9.1,1.67,19.55-.28,24.2-10.24a32,32,0,0,0,3.07-12.8h9.59c.41.6.86,1.22,1.35,1.84,9.33,11.89,17.57,15.14,25.2,16.73,8.05,1.69,17.38-.5,21.52-9.35a29.65,29.65,0,0,0,.38-24"/><path class="cls-6" d="M195.67,107h-4.28c14.5,25.27-2.28,26.07-14.25,6.69h-1.63c16.33,26.3,34.83,16.65,20.16-6.69"/><path class="cls-6" d="M132.4,105.54h-5c19,33.07-3.86,33.87-19.43,8.11h-2.11c21.29,34.88,45.69,22.37,26.53-8.11"/><path class="cls-5" d="M228.28,113.65l-13-7.39h0a24.92,24.92,0,0,0,2.59-4.82C219,98.76,220,95,219.45,92.35a9.76,9.76,0,0,0-2.21-4.49l-6.93-8.35,0,0,.7-2.37h13.28a41.6,41.6,0,0,0,1.19-5,12,12,0,0,0-.39-5.43,9.58,9.58,0,0,0-1.61-2.89l-7.16-8.62a14,14,0,0,0-3-2.48A19.3,19.3,0,0,0,203,50.07a32.82,32.82,0,0,0-9.72,1.57l.95-3.45-10.06-12-14.7,0L166,47l3.75,4.39H164.6l-1.37,4.36-3.61-4.36H144.85l-3,9.36-7.8-9.36H119.84l-4.23,12.88-6-7.3a14.08,14.08,0,0,0-2.51-2.38c-4.27-3.16-9.64-3.82-13.39-3.82a29.88,29.88,0,0,0-5.48.44l-.14,0a27.87,27.87,0,0,0-4.67,1.17,20.65,20.65,0,0,0-8,5.14l3.14-11-10-12L53,34.48,31.38,105,2.7,113.65H93.12a19.24,19.24,0,0,0,9.69-2.53c.29-.17.55-.33.77-.49a17.45,17.45,0,0,0,4.93-5.48l1.06-1.85c.94,1.16,3.48,4.25,5.54,6.75a9.93,9.93,0,0,0,7.65,3.6h48l3.37-10.75c1.6,1.94,5.79,7,5.88,7.08s.46.46.7.67a12.65,12.65,0,0,0,8.41,3Z"/></g><g class="cls-8"><rect class="cls-9" x="32.91" y="35.86" width="184.45" height="69.43"/></g></g></svg>